<svg width="144" height="14" viewBox="0 0 144 14" fill="none" xmlns="http://www.w3.org/2000/svg">
<path d="M5.35858 13.8071C9.9643 13.8071 12.7543 11.2399 12.7543 6.98337C12.7543 2.74014 9.9643 0.186223 5.40287 0.186223H0V13.8071H5.35858ZM3.19596 11.3397V2.65368H5.23311C8.0674 2.65368 9.56573 3.95724 9.56573 6.98337C9.56573 10.0228 8.0674 11.3397 5.22572 11.3397H3.19596Z" fill="#1A1726"/>
<path d="M17.8238 13.8071H21.0197V8.97862H23.3521L26.2159 13.8071H29.744L26.5333 8.51306C28.2531 7.84798 29.2052 6.49786 29.2052 4.63563C29.2052 1.92874 27.2197 0.186223 23.7876 0.186223H17.8238V13.8071ZM21.0197 6.66413V2.54062H23.175C25.0202 2.54062 25.9133 3.27886 25.9133 4.63563C25.9133 5.98575 25.0202 6.66413 23.1897 6.66413H21.0197Z" fill="#1A1726"/>
<path d="M34.1658 13.8071H44.3811V11.4328H37.3618V8.18052H43.8275V5.80618H37.3618V2.56057H44.3516V0.186223H34.1658V13.8071Z" fill="#1A1726"/>
<path d="M57.7947 4.10356H60.8578C60.8136 1.67601 58.5993 0 55.2335 0C51.9195 0 49.4911 1.64941 49.5059 4.12351C49.4985 6.13207 51.0707 7.28266 53.6245 7.83468L55.2704 8.20713C56.9164 8.56627 57.8316 8.99192 57.839 9.90974C57.8316 10.9074 56.7835 11.5857 55.1597 11.5857C53.499 11.5857 52.3033 10.8941 52.2 9.53064H49.1073C49.1885 12.477 51.5283 14 55.1966 14C58.8871 14 61.0571 12.4105 61.0645 9.91639C61.0571 7.64846 59.1602 6.44466 56.5326 5.91259L55.1745 5.61995C53.8607 5.34727 52.7609 4.90831 52.7831 3.93064C52.7831 3.05273 53.6466 2.4076 55.2114 2.4076C56.7393 2.4076 57.6766 3.03278 57.7947 4.10356Z" fill="#1A1726"/>
<path d="M74.1165 4.10356H77.1796C77.1353 1.67601 74.921 0 71.5553 0C68.2412 0 65.8129 1.64941 65.8277 4.12351C65.8203 6.13207 67.3924 7.28266 69.9462 7.83468L71.5922 8.20713C73.2382 8.56627 74.1534 8.99192 74.1608 9.90974C74.1534 10.9074 73.1053 11.5857 71.4815 11.5857C69.8208 11.5857 68.625 10.8941 68.5217 9.53064H65.4291C65.5103 12.477 67.8501 14 71.5184 14C75.2089 14 77.3789 12.4105 77.3863 9.91639C77.3789 7.64846 75.482 6.44466 72.8543 5.91259L71.4962 5.61995C70.1824 5.34727 69.0827 4.90831 69.1048 3.93064C69.1048 3.05273 69.9684 2.4076 71.5332 2.4076C73.061 2.4076 73.9984 3.03278 74.1165 4.10356Z" fill="#1A1726"/>
<path d="M94.7044 0.186223H93.3463V11.6057H93.2282L84.2678 0.186223H82.9318V13.8071H84.312V2.40095H84.4301L93.3611 13.8071H94.7044V0.186223Z" fill="#1A1726"/>
<path d="M113.818 6.99667C113.818 2.73349 111.102 0 107.279 0C103.463 0 100.746 2.74014 100.746 6.99667C100.746 11.2532 103.455 13.9933 107.279 13.9933C111.102 13.9933 113.818 11.2599 113.818 6.99667ZM112.475 6.99667C112.482 10.6613 110.26 12.8228 107.279 12.8228C104.289 12.8228 102.082 10.648 102.082 6.99667C102.082 3.32542 104.311 1.17055 107.279 1.17055C110.26 1.17055 112.475 3.33207 112.475 6.99667Z" fill="#1A1726"/>
<path d="M118.314 1.30356H123.104V13.8071H124.484V1.30356H129.274V0.186223H118.314V1.30356Z" fill="#1A1726"/>
<path d="M135.084 13.8071H144V12.6898H136.464V7.54869H143.387V6.43135H136.464V1.30356H143.852V0.186223H135.084V13.8071Z" fill="#1A1726"/>
</svg>
