<svg width="110" height="16" viewBox="0 0 110 16" fill="none" xmlns="http://www.w3.org/2000/svg">
<path d="M23.9708 0.5H15.1497C13.6092 0.5 12.3601 1.73673 12.3601 3.26225V12.6996C12.3601 14.2248 13.6092 15.4615 15.1497 15.4615H23.9708C25.5115 15.4615 26.7603 14.2248 26.7603 12.6996V3.26225C26.7603 1.73673 25.5113 0.5 23.9708 0.5ZM22.4983 9.19563L24.5001 15.046L19.7216 11.3695L15.1046 15.014L16.9449 9.32352L12.683 6.12657H17.9781L19.657 0.915606L21.4328 6.12657H26.405L22.4983 9.19563ZM58.2504 15.4997C56.4528 15.4997 54.9955 14.0568 54.9955 12.2771V4.02669C54.9955 2.24692 56.4528 0.804064 58.2504 0.804064H66.2969V4.75751H59.2897V6.175H66.2969V10.1288H59.2897V11.5462H66.2969V15.5L58.2504 15.4997ZM40.2986 4.02669C40.2986 2.24692 38.8414 0.804064 37.0439 0.804064H28.1686V15.5H32.4633V4.75736H36.0044V15.5H40.2989L40.2986 4.02669ZM3.25468 15.5C1.4573 15.5 0 14.0573 0 12.2774V4.02623C0 2.24646 1.4573 0.803453 3.25468 0.803453H11.1509V4.75736H4.29466V11.5462H11.151V15.5H3.25468ZM40.113 0.803453H44.5584L47.4967 9.75578L50.5105 0.803453H54.9558L49.9831 15.5H45.0104L40.113 0.803453ZM90.1327 15.4997C91.9303 15.4997 93.3876 14.0568 93.3876 12.2771V9.39778C93.3876 7.61816 91.9303 6.17531 90.1327 6.17531L85.6273 6.175V4.75751H92.8607V0.803912H84.588C82.7907 0.803912 81.3335 2.24677 81.3335 4.02654V6.90552C81.3335 8.68529 82.7907 10.1283 84.588 10.1283H89.1689V11.5461H81.3328V15.5L90.1327 15.4997ZM105.972 15.5L97.9252 15.4997C96.128 15.4997 94.6707 14.0568 94.6707 12.2771V4.02669C94.6707 2.24692 96.128 0.804064 97.9252 0.804064H105.972V4.75751H98.9649V6.175H105.972V10.1288H98.9649V11.5462H105.972V15.5ZM77.7203 9.9208C78.9495 9.46027 79.8236 8.2839 79.8236 6.90567V4.02669C79.8236 2.24692 78.3663 0.804064 76.5691 0.804064H67.8444V15.5H72.1389V7.14465L75.9815 15.5H80.3514L77.7203 9.9208ZM75.6794 6.16415H72.1381V4.74666H75.6794V6.16415ZM109.57 1.45818C109.284 1.17582 108.938 1.03479 108.531 1.03479C108.128 1.03479 107.783 1.17597 107.499 1.45818C107.212 1.74162 107.069 2.08327 107.069 2.48284C107.069 2.88637 107.211 3.23001 107.495 3.51345C107.78 3.79826 108.125 3.94066 108.532 3.94066C108.938 3.94066 109.284 3.79811 109.57 3.51345C109.857 3.22863 110 2.885 110 2.48284C110 2.0819 109.857 1.74025 109.57 1.45818ZM109.425 3.37287C109.179 3.61826 108.882 3.74096 108.531 3.74096C108.181 3.74096 107.884 3.61826 107.639 3.37287C107.395 3.12764 107.273 2.83091 107.273 2.48284C107.273 2.13721 107.395 1.84262 107.641 1.5986C107.887 1.35337 108.184 1.23067 108.531 1.23067C108.88 1.23067 109.178 1.35337 109.425 1.5986C109.67 1.84262 109.792 2.13721 109.792 2.48284C109.792 2.83091 109.67 3.12764 109.425 3.37287Z" fill="#32313A"/>
<path d="M109.988 3.48117C109.981 3.46881 109.975 3.44264 109.972 3.40297C109.969 3.36584 109.967 3.32864 109.967 3.29142V3.1816C109.967 3.10585 109.933 3.02837 109.863 2.94887C109.794 2.86953 109.684 2.82051 109.534 2.80196C109.652 2.78701 109.745 2.76301 109.811 2.72937C109.936 2.66612 109.998 2.56751 109.998 2.43354C109.998 2.24494 109.899 2.11845 109.702 2.05391C109.592 2.01797 109.418 2 109.181 2H108.514V3.5H108.85V2.90819H109.115C109.293 2.90819 109.418 2.92429 109.489 2.95649C109.609 3.01241 109.669 3.12712 109.669 3.30077V3.41993L109.676 3.46838C109.678 3.47441 109.679 3.48016 109.681 3.48505L109.685 3.5H110L109.988 3.48117ZM109.473 2.68898C109.401 2.7114 109.295 2.72247 109.153 2.72247H108.85V2.17911H109.136C109.323 2.17911 109.458 2.19765 109.542 2.23488C109.627 2.27226 109.669 2.34542 109.669 2.45453C109.669 2.56996 109.604 2.64816 109.473 2.68898Z" fill="#32313A"/>
</svg>
