<svg width="164" height="16" viewBox="0 0 164 16" fill="none" xmlns="http://www.w3.org/2000/svg">
<path d="M6.10283 15.7796C11.3482 15.7796 14.5257 12.8456 14.5257 7.981C14.5257 3.13159 11.3482 0.212827 6.15327 0.212827H0V15.7796H6.10283ZM3.63984 12.9596V3.03278H5.95993C9.18787 3.03278 10.8943 4.52257 10.8943 7.981C10.8943 11.4546 9.18787 12.9596 5.95152 12.9596H3.63984Z" fill="#32313A"/>
<path d="M20.2993 15.7796H23.9391V10.2613H26.5955L29.857 15.7796H33.8752L30.2185 9.72922C32.1771 8.96912 33.2615 7.42613 33.2615 5.29786C33.2615 2.20427 31.0003 0.212827 27.0914 0.212827H20.2993V15.7796ZM23.9391 7.61615V2.90356H26.3937C28.4953 2.90356 29.5124 3.74727 29.5124 5.29786C29.5124 6.84086 28.4953 7.61615 26.4105 7.61615H23.9391Z" fill="#32313A"/>
<path d="M38.9111 15.7796H50.5451V13.066H42.5509V9.34917H49.9147V6.63563H42.5509V2.92637H50.5115V0.212827H38.9111V15.7796Z" fill="#32313A"/>
<path d="M65.8218 4.68979H69.3103C69.2599 1.91544 66.738 0 62.9049 0C59.1305 0 56.3649 1.88504 56.3817 4.71259C56.3733 7.00808 58.1638 8.32304 61.0723 8.95392L62.9469 9.37957C64.8215 9.79002 65.8638 10.2765 65.8722 11.3254C65.8638 12.4656 64.6702 13.2409 62.8208 13.2409C60.9294 13.2409 59.5676 12.4504 59.45 10.8922H55.9278C56.0203 14.2594 58.685 16 62.8628 16C67.0659 16 69.5373 14.1834 69.5457 11.333C69.5373 8.74109 67.3769 7.36532 64.3843 6.75724L62.8376 6.4228C61.3413 6.11116 60.0888 5.6095 60.114 4.49216C60.114 3.48884 61.0976 2.75154 62.8797 2.75154C64.6197 2.75154 65.6873 3.46603 65.8218 4.68979Z" fill="#32313A"/>
<path d="M84.4104 4.68979H87.899C87.8485 1.91544 85.3267 0 81.4935 0C77.7192 0 74.9536 1.88504 74.9704 4.71259C74.962 7.00808 76.7525 8.32304 79.661 8.95392L81.5356 9.37957C83.4101 9.79002 84.4525 10.2765 84.4609 11.3254C84.4525 12.4656 83.2588 13.2409 81.4095 13.2409C79.5181 13.2409 78.1563 12.4504 78.0386 10.8922H74.5165C74.6089 14.2594 77.2737 16 81.4515 16C85.6545 16 88.1259 14.1834 88.1344 11.333C88.1259 8.74109 85.9656 7.36532 82.973 6.75724L81.4263 6.4228C79.93 6.11116 78.6775 5.6095 78.7027 4.49216C78.7027 3.48884 79.6862 2.75154 81.4683 2.75154C83.2084 2.75154 84.2759 3.46603 84.4104 4.68979Z" fill="#32313A"/>
<path d="M107.858 0.212827H106.311V13.2637H106.177L95.9716 0.212827H94.4501V15.7796H96.022V2.74394H96.1565L106.328 15.7796H107.858V0.212827Z" fill="#32313A"/>
<path d="M129.626 7.9962C129.626 3.12399 126.533 0 122.178 0C117.832 0 114.739 3.13159 114.739 7.9962C114.739 12.8608 117.824 15.9924 122.178 15.9924C126.533 15.9924 129.626 12.8684 129.626 7.9962ZM128.096 7.9962C128.105 12.1843 125.574 14.6546 122.178 14.6546C118.774 14.6546 116.26 12.1691 116.26 7.9962C116.26 3.80048 118.799 1.33777 122.178 1.33777C125.574 1.33777 128.096 3.80808 128.096 7.9962Z" fill="#32313A"/>
<path d="M134.746 1.48979H140.202V15.7796H141.774V1.48979H147.229V0.212827H134.746V1.48979Z" fill="#32313A"/>
<path d="M153.845 15.7796H164V14.5026H155.417V8.62708H163.302V7.35012H155.417V1.48979H163.832V0.212827H153.845V15.7796Z" fill="#32313A"/>
</svg>
