<svg width="24" height="24" viewBox="0 0 24 24" fill="currentColor" xmlns="http://www.w3.org/2000/svg">
<path d="M11.9972 8.33177C9.97738 8.33177 8.32902 9.98013 8.32902 12C8.32902 14.0199 9.97738 15.6682 11.9972 15.6682C14.0171 15.6682 15.6655 14.0199 15.6655 12C15.6655 9.98013 14.0171 8.33177 11.9972 8.33177ZM22.9992 12C22.9992 10.481 23.0129 8.97571 22.9276 7.45943C22.8423 5.69824 22.4406 4.13519 21.1527 2.84732C19.8621 1.55669 18.3018 1.15767 16.5406 1.07237C15.0215 0.987059 13.5163 1.00082 12 1.00082C10.481 1.00082 8.97571 0.987059 7.45943 1.07237C5.69824 1.15767 4.13519 1.55945 2.84732 2.84732C1.55669 4.13794 1.15767 5.69824 1.07237 7.45943C0.987059 8.97846 1.00082 10.4837 1.00082 12C1.00082 13.5163 0.987059 15.0243 1.07237 16.5406C1.15767 18.3018 1.55945 19.8648 2.84732 21.1527C4.13794 22.4433 5.69824 22.8423 7.45943 22.9276C8.97846 23.0129 10.4837 22.9992 12 22.9992C13.519 22.9992 15.0243 23.0129 16.5406 22.9276C18.3018 22.8423 19.8648 22.4406 21.1527 21.1527C22.4433 19.8621 22.8423 18.3018 22.9276 16.5406C23.0157 15.0243 22.9992 13.519 22.9992 12ZM11.9972 17.6441C8.87389 17.6441 6.35318 15.1234 6.35318 12C6.35318 8.87664 8.87389 6.35594 11.9972 6.35594C15.1206 6.35594 17.6413 8.87664 17.6413 12C17.6413 15.1234 15.1206 17.6441 11.9972 17.6441ZM17.8725 7.44292C17.1432 7.44292 16.5543 6.85402 16.5543 6.12478C16.5543 5.39554 17.1432 4.80664 17.8725 4.80664C18.6017 4.80664 19.1906 5.39554 19.1906 6.12478C19.1908 6.29794 19.1569 6.46945 19.0907 6.62947C19.0245 6.78949 18.9275 6.93489 18.805 7.05733C18.6826 7.17978 18.5372 7.27686 18.3772 7.34303C18.2171 7.40919 18.0456 7.44314 17.8725 7.44292Z" fill="#6E6D74"/>
</svg>
