<svg width="110" height="60" viewBox="0 0 110 60" fill="none" xmlns="http://www.w3.org/2000/svg">
<path fill-rule="evenodd" clip-rule="evenodd" d="M0 0H110V60H0V0Z" fill="white"/>
<path fill-rule="evenodd" clip-rule="evenodd" d="M54.2566 12C66.1183 12 75.8112 21.4388 75.8112 33.0003C75.8112 44.5612 66.1183 54 54.2566 54C42.3808 54 32.7031 44.5612 32.7031 33.0003C32.7037 21.4388 42.3814 12 54.2566 12Z" fill="#32313A"/>
<path fill-rule="evenodd" clip-rule="evenodd" d="M55.007 12C66.47 12 75.8111 21.0956 75.8111 32.25C75.8111 43.4038 66.47 52.5 55.007 52.5C43.5452 52.5 34.1895 43.4044 34.1895 32.25C34.19 21.0951 43.5452 12 55.007 12Z" fill="white"/>
<path fill-rule="evenodd" clip-rule="evenodd" d="M81.7564 36.024C80.6509 49.4135 69.0051 60 54.8893 60C42.1827 60 31.4825 51.4265 28.6618 39.9753L31.7732 39.7369C35.4223 49.3839 44.4215 56.228 54.8893 56.228C66.5922 56.228 76.4493 47.6695 79.0658 36.2334L81.7564 36.024ZM27.1791 18.1016V16.059H28.7489V18.1016H27.1791ZM27.1791 12.8385V9.9016C27.4404 10.0802 27.6733 10.3632 27.6733 10.811V12.8391H27.1791V12.8385ZM11.6088 14.2101H11.7253C14.0224 14.2698 13.4987 12.4656 13.4987 8.97657C13.4987 5.53221 13.9641 3.80278 11.6088 3.7877V0.000579638H13.8188C16.8283 0.000579638 18.9071 2.10292 18.9071 3.16192L18.8488 15.0006C18.8488 16.7451 17.0314 18.1022 14.153 18.1022H11.6088V14.2101ZM27.1791 9.90102V12.8379L25.9141 12.853C25.8994 11.511 25.5799 11.4066 25.1433 11.4066C24.7073 11.4217 24.3726 11.7348 24.3726 12.8379V16.1483H25.0998V18.1016H20.8546V16.1483H21.363V11.7946H20.8546V9.82621H24.2419V10.8405C24.402 10.4381 25.2598 9.64758 26.3642 9.60292C26.4524 9.60292 26.8443 9.67716 27.1791 9.90102ZM27.1791 16.059H26.6843V18.1016H27.1791V16.059ZM9.66016 14.1654L11.6083 14.2101V18.1016H2.97266V14.478H3.53928C4.06292 14.5082 4.2665 14.1649 4.2665 13.7925V4.30966C4.2812 3.83235 3.97584 3.69838 3.4669 3.65373L2.97266 3.62357V0H11.6083V3.78712H9.6596V14.1654H9.66016Z" fill="#32313A"/>
<path fill-rule="evenodd" clip-rule="evenodd" d="M75.8106 36C74.1102 45.3532 65.8261 52.5 55.9287 52.5C48.6182 52.5 42.1946 48.6169 38.6484 42.8295C41.8605 45.4437 47.6159 52.6058 59.8531 50.46C55.13 49.2058 49.331 48.5863 43.5174 42.542C57.2075 42.709 67.1201 39.4147 75.8106 36Z" fill="#32313A"/>
<path fill-rule="evenodd" clip-rule="evenodd" d="M65.5487 9.74437H65.6229C65.5936 9.90979 65.5781 10.06 65.5487 10.2254V9.74437ZM65.5487 11.0671L66.3328 11.8785C66.1263 13.4713 65.918 15.0495 65.7115 16.6424L68.0337 16.7774C68.6538 16.2513 69.275 15.7106 69.8962 15.1846L72.0412 16.8376C72.6918 16.2367 73.3274 15.6206 73.978 15.0045C73.6973 14.5538 73.4016 14.1178 73.106 13.6671C73.179 13.2615 73.2676 12.8406 73.3568 12.4349L73.6823 12.8108L75.3977 12.961C75.53 12.1649 75.6784 11.353 75.8112 10.5569C75.0134 10.1664 74.2294 9.78996 73.4304 9.40008C72.3363 9.36969 71.2417 9.32468 70.1476 9.29487C70.2512 9.88115 70.3541 10.4522 70.4732 11.0379L70.4876 11.1881L69.9699 13.8781C69.6892 13.8331 69.4079 13.7729 69.1272 13.7279C69.2451 13.1416 69.3486 12.5407 69.4666 11.9545L69.7036 10.3464L66.2873 9.14406C66.0365 9.69994 65.7852 10.2412 65.5482 10.7971V11.0671H65.5487ZM67.7518 5.8824L68.6843 5.65678L68.8315 5.64158L69.0093 5.65678L69.187 5.70179L69.3498 5.7766L69.4982 5.88182L69.6161 6.01685L69.7047 6.18226C69.7789 6.3775 69.8226 6.57273 69.8675 6.78316L69.9854 7.38405V7.56467L69.9256 7.74529L69.8525 7.91071L69.749 8.04573L69.6155 8.16615L69.4528 8.27136C69.0541 8.40639 68.625 8.48179 68.2258 8.58701L68.0774 8.6022H67.8853L67.7075 8.542L67.5591 8.46659L67.4119 8.36138L67.2928 8.22635L67.1893 8.06093C67.0857 7.73009 67.0115 7.36944 66.9373 7.00879L66.908 6.87376L66.9224 6.67853L66.9672 6.49791L67.0558 6.33249L67.1594 6.19746L67.2917 6.07705L67.4401 5.97184L67.7518 5.8824ZM44.1943 11.1122C44.6084 11.2624 45.022 11.4126 45.4362 11.5482L45.2142 13.1557C45.0957 13.7571 44.9777 14.358 44.8592 14.9443L45.9832 15.1249L46.5159 12.3899L46.4865 12.2549L46.1759 10.4967L49.4593 10.6019C50.2427 10.9923 51.0267 11.3834 51.8252 11.7586L51.7216 9.65435L50.7898 7.65585C51.9431 6.60371 53.1113 5.55156 54.2652 4.5L54.4723 8.45198C55.5664 7.76049 56.6754 7.05438 57.7551 6.36347C57.8437 7.61085 57.9179 8.84303 58.007 10.0904L60.2843 5.73218L63.375 5.85259V7.73068L62.0888 8.57239C61.7931 8.79743 61.5124 9.00786 61.2156 9.21829L59.5596 13.6367L61.9548 11.9235L61.4819 11.7434L61.6597 9.74437H65.5493V10.2254C65.2974 11.5774 65.0615 12.93 64.8102 14.268L65.3572 15.2898C64.8694 16.3869 64.3661 17.4689 63.8639 18.566L62.4144 17.093L60.8457 17.7243C60.255 17.2286 59.6625 16.7178 59.0718 16.2215L58.8348 15.1694L56.2463 17.7243L55.6406 15.1846L55.537 15.2594V16.2665L53.9097 17.093C53.2592 16.2361 52.5936 15.3798 51.9431 14.5235L51.8246 11.8183L51.4104 14.178L49.6957 14.0272L49.3707 13.6367C49.2821 14.0576 49.2079 14.4779 49.1193 14.8841L50.0063 16.2215L48.069 18.0552L45.7767 16.2817L44.1949 17.6343V11.1122H44.1943ZM65.5487 10.7965C65.5194 10.8567 65.4889 10.9169 65.4602 10.9917L65.5487 11.0666V10.7965ZM44.1943 9.74437L45.1998 9.48893L45.3476 9.38371L45.4805 9.2633L45.599 9.11308L45.6726 8.94766L45.7169 8.78224L45.7313 8.60162L45.5984 7.98553C45.5541 7.7903 45.5098 7.57987 45.4356 7.38464L45.347 7.23441L45.2291 7.09939L45.0957 6.99417L44.9329 6.90415L44.7551 6.85915L44.5774 6.84395L44.4296 6.87376L44.1931 6.93397V9.74437H44.1943ZM41.5028 17.5139C41.6806 16.0409 41.8727 14.5685 42.0654 13.0955L41.1928 12.1941L42.0205 10.361C42.7453 10.6165 43.4701 10.8567 44.1949 11.1122V17.6337L43.7657 17.9944L41.9463 17.8892L42.1827 18.0844C40.9432 18.9375 39.7059 19.794 38.4709 20.654C38.1159 19.662 37.761 18.6555 37.4061 17.6635C37.2284 17.6635 37.0512 17.6489 36.8735 17.6489L35.8087 21L32.7031 18.3246L33.398 16.5512L34.4627 16.7768L35.7052 13.711L36.755 10.976L37.6126 9.29311L38.426 8.06093L40.3783 7.89551V16.5518L41.5028 17.5139ZM44.1943 6.93397L43.4994 7.09939L43.1888 7.1894L43.026 7.27942L42.8931 7.39983L42.7896 7.55006L42.7154 7.71489L42.6562 7.89551V8.07613L42.6711 8.22635C42.7453 8.57181 42.8189 8.94766 42.9374 9.27792L43.026 9.44334L43.1445 9.57836L43.2923 9.68358L43.4551 9.7584L43.6323 9.8034L43.81 9.8186L43.9579 9.8034L44.1949 9.7432V6.93397H44.1943Z" fill="white"/>
<path fill-rule="evenodd" clip-rule="evenodd" d="M61.1841 18.3488V16.9627C61.4187 16.9773 61.6401 16.9931 61.8746 17.0078C62.1103 16.601 62.3449 16.2095 62.5806 15.8022C62.4633 15.6967 62.3449 15.6064 62.2276 15.5161C61.8746 15.757 61.5371 16.0132 61.1841 16.2693V14.9283C61.7431 14.5215 62.3014 14.13 62.8603 13.7227C62.8746 13.466 62.9049 13.1952 62.9198 12.939C62.7369 12.8597 62.5504 12.7893 62.3609 12.728C62.3901 12.4567 62.4192 12.2006 62.4335 11.9444H64.8763C64.6406 13.2403 64.4192 14.5514 64.1846 15.8625C64.3465 16.179 64.5073 16.4955 64.6697 16.7968C64.3614 17.4597 64.0662 18.1378 63.7579 18.8007C63.4192 18.439 63.0662 18.0927 62.7133 17.731C62.199 17.9274 61.6984 18.1384 61.1841 18.3488ZM61.1841 9.91065V7.95189C61.7127 7.96654 62.2568 7.98178 62.7865 8.01226V8.79588L61.8168 9.42887C61.5955 9.59415 61.3901 9.74537 61.1841 9.91065ZM66.7578 11.5084C67.5083 11.7645 68.2583 12.0359 68.9934 12.292L68.8618 13.3013C68.6999 14.1306 68.538 14.9588 68.3756 15.8027C68.788 15.8631 69.1999 15.9381 69.6261 16.0137C69.0393 16.5117 68.4559 17.014 67.8762 17.5206C67.4598 17.4881 67.0429 17.463 66.6256 17.4456C66.8167 15.9839 66.9935 14.5374 67.1845 13.0756C66.9197 12.8189 66.6697 12.5634 66.4203 12.292C66.5375 12.0353 66.6405 11.7645 66.7578 11.5084ZM67.8905 8.07262C68.2291 7.9976 68.5678 7.90676 68.9047 7.83115C68.9574 7.81755 69.0132 7.82572 69.0601 7.8539C69.107 7.88208 69.1412 7.92801 69.1553 7.98178C69.2291 8.26838 69.2869 8.53916 69.3464 8.82577C69.3537 8.85244 69.3556 8.88035 69.3522 8.90783C69.3487 8.9353 69.3399 8.96178 69.3262 8.98568C69.3125 9.00958 69.2943 9.03042 69.2726 9.04695C69.2509 9.06348 69.2262 9.07537 69.1999 9.0819C68.8613 9.1575 68.5226 9.24776 68.1845 9.32337C68.0672 9.35326 67.95 9.27824 67.9339 9.17274C67.8613 8.88672 67.8024 8.61536 67.7286 8.34399C67.715 8.28601 67.7244 8.22487 67.7547 8.17399C67.7851 8.12311 67.8339 8.08666 67.8905 8.07262ZM71.0963 11.5084C71.8326 11.5383 72.5825 11.5535 73.3176 11.5834C73.9063 11.87 74.4795 12.156 75.0687 12.442C74.9949 12.8488 74.9211 13.2403 74.8622 13.6476C74.5974 13.633 74.3485 13.6025 74.0979 13.5873C73.9069 13.361 73.7147 13.15 73.539 12.9396C73.3033 13.0147 73.0676 13.075 72.8331 13.1506C72.7004 13.8739 72.5539 14.5819 72.4206 15.3051C72.6563 15.6515 72.8766 16.0132 73.1123 16.3748C72.7593 16.7065 72.4206 17.0377 72.0677 17.3694C71.5826 16.9925 71.0969 16.6004 70.5975 16.2242L71.3034 12.653C71.2269 12.2729 71.1579 11.8913 71.0963 11.5084ZM37.8582 12.3371C38.2112 11.5986 38.6088 10.8906 39.079 10.2271C39.3587 10.1973 39.6379 10.1668 39.9176 10.1521V18.3793L41.2408 19.5093C40.52 20.0215 39.7992 20.5191 39.079 21.0161C38.7701 20.1569 38.476 19.2983 38.1671 18.4396C38.0642 18.4396 37.9612 18.4396 37.8582 18.4244V16.6163C38.0493 16.6614 38.2552 16.6913 38.4463 16.7218L38.0933 14.8685C38.0201 15.0338 37.932 15.185 37.8582 15.3503V12.3371ZM61.1841 7.95189V9.91065C61.0366 10.0161 60.905 10.1216 60.7574 10.2271L58.5956 16.0137C57.992 16.601 57.4045 17.2041 56.801 17.8066C56.6099 17.0084 56.4332 16.2247 56.2421 15.4411C55.8296 15.7576 55.4029 16.0589 54.9915 16.3754V17.2944L54.2856 17.656C53.8 17.0094 53.3097 16.3664 52.8148 15.7271C52.7559 14.13 52.6827 12.5329 52.6089 10.9357C52.3589 10.3936 52.094 9.83621 51.844 9.29348C52.4911 8.69096 53.1529 8.1031 53.7999 7.5C53.888 9.29348 53.991 11.0864 54.0791 12.864H54.5648C54.8439 12.4872 55.1237 12.1109 55.4023 11.7188C55.285 11.312 55.1672 10.9199 55.0499 10.5132C55.7999 10.0314 56.5499 9.54902 57.285 9.0819C57.3731 10.4839 57.4617 11.8846 57.5498 13.3013C57.6671 13.3915 57.7855 13.4824 57.9028 13.5879C58.8736 11.7041 59.8592 9.82039 60.83 7.93723C60.9485 7.93665 61.0657 7.93665 61.1841 7.95189ZM61.1841 14.9283C60.639 15.3198 60.1104 15.6967 59.5807 16.0882C59.6687 16.4949 59.7574 16.887 59.8598 17.2938C60.2711 17.6554 60.6979 18.0171 61.1103 18.3787C61.1395 18.3634 61.1538 18.3488 61.1841 18.3488V16.9627C61.0961 16.9627 60.9919 16.948 60.905 16.948C60.9485 16.7522 60.9919 16.5559 61.0366 16.3748C61.096 16.3297 61.1395 16.2998 61.1841 16.2693V14.9283ZM42.6384 12.7286C43.3735 12.9848 44.1235 13.2409 44.874 13.5117C44.8151 13.8434 44.771 14.1751 44.727 14.5063C44.5651 15.3497 44.4038 16.179 44.2413 17.0078C44.6532 17.0828 45.0794 17.1584 45.4918 17.234C44.9186 17.731 44.33 18.2286 43.7562 18.7256C43.3294 18.711 42.9181 18.6805 42.4914 18.6506C42.6824 17.2041 42.8735 15.757 43.0503 14.2953L42.2854 13.5117C42.4027 13.2409 42.52 12.9848 42.6384 12.7286ZM43.7556 9.29289C44.0943 9.20263 44.4324 9.12703 44.7705 9.03677C44.8883 9.02153 45.0062 9.0819 45.0353 9.20263C45.0943 9.474 45.1532 9.76002 45.2264 10.0314C45.2341 10.0592 45.2359 10.0883 45.2318 10.1169C45.2276 10.1455 45.2175 10.1728 45.2021 10.1971C45.1868 10.2213 45.1666 10.2419 45.1429 10.2575C45.1191 10.2731 45.0924 10.2834 45.0645 10.2875C44.7264 10.3778 44.3878 10.4534 44.0497 10.5436C43.9467 10.5735 43.8294 10.4985 43.7997 10.393C43.7407 10.107 43.6675 9.83563 43.6086 9.54902C43.5794 9.44352 43.6526 9.32278 43.7556 9.29289ZM47.2412 12.7286C47.9912 12.7433 48.7269 12.7738 49.4768 12.789C50.0506 13.075 50.6387 13.3616 51.2125 13.6476C51.1511 14.0558 51.0824 14.4629 51.0065 14.8685C50.7565 14.838 50.4917 14.8234 50.2417 14.7929C50.0506 14.5819 49.8739 14.3709 49.6828 14.1599C49.4471 14.2209 49.212 14.2953 48.9917 14.3709C48.8447 15.0789 48.712 15.8022 48.565 16.5102C48.8007 16.8718 49.0358 17.2334 49.2709 17.5804C48.9179 17.9115 48.565 18.2585 48.212 18.5897C47.7263 18.1982 47.2412 17.8213 46.7561 17.4444C46.9912 16.2541 47.2115 15.0637 47.4472 13.8733C47.3734 13.4824 47.315 13.1055 47.2412 12.7286ZM33.8429 19.5849C33.931 19.3434 34.034 19.1178 34.1221 18.8769C34.475 18.9372 34.8131 19.0123 35.1666 19.0879C35.6518 17.867 36.1517 16.662 36.6374 15.4411C37.0053 14.3861 37.388 13.3464 37.8582 12.3371V15.3509C37.6523 15.7424 37.4612 16.1192 37.2552 16.5108C37.4606 16.5559 37.6523 16.5864 37.8582 16.6163V18.4244L36.6374 18.3793C36.3285 19.3288 36.0345 20.2782 35.7255 21.2271C35.0943 20.6841 34.4668 20.1367 33.8429 19.5849ZM103.968 24.0147L107.719 21.3326C108.175 20.835 108.454 20.3832 108.513 19.916L103.968 23.1859V24.0147H103.968ZM103.968 22.3419V21.4979L108.16 18.4842C108.291 18.7104 108.38 18.9214 108.439 19.1172L103.968 22.3419ZM103.968 20.6692V19.8258L107.409 17.3548L107.793 17.9121L103.968 20.6692ZM103.968 18.9818L107.012 16.7968L105.616 14.7929C105.115 14.3258 104.586 14.0849 103.968 14.1452V18.9818ZM100.276 26.6668L103.967 24.0152V23.1865L100.276 25.8234V26.6668ZM103.968 14.1452V18.9824L103.218 19.5245L102.659 18.6659C102.349 18.289 101.776 18.3189 101.246 18.711L100.276 19.419V16.3297L102.452 14.8081C103.027 14.4014 103.512 14.1904 103.968 14.1452ZM103.968 19.8258V20.6692L100.276 23.3066V22.4626L101.659 21.4833C101.851 21.5888 102.071 21.6491 102.276 21.6187L103.233 20.9253C103.453 20.7295 103.527 20.4277 103.497 20.1563L103.968 19.8258ZM103.968 21.4979V22.3419L100.276 24.9788V24.15L103.968 21.4979ZM100.276 21.6339L101.085 21.0466C100.982 20.9564 100.908 20.8655 100.834 20.7905L100.275 21.182V21.6339H100.276ZM100.276 14.6118L100.29 14.6264L103.437 12.3213L101.261 9.11179L100.275 9.83504V14.6118H100.276ZM99.4816 26.3954L99.8649 26.968L100.276 26.6668V25.8234L99.4816 26.3954ZM100.276 9.83562V14.6118C99.8643 14.4764 99.4524 14.0544 99.0554 14.1898L97.9227 14.9881C97.687 15.335 97.6287 15.4253 97.8935 15.8772L98.4959 16.7663C98.8649 17.0828 99.4089 16.9925 99.8649 16.6309L100.276 16.3291V19.4184L98.0995 20.9857C97.1287 21.5284 96.3352 21.7242 95.1574 20.5338L92.9806 17.3841C92.7604 17.0377 92.6431 16.6907 92.6277 16.3595V16.1937C92.658 15.7266 92.8783 15.2741 93.3193 14.8374L100.276 9.83562ZM100.276 21.182L97.3638 23.2762L97.5692 23.5774L100.275 21.6339V21.182H100.276ZM100.276 22.4626V23.3066L98.3346 24.708L97.9513 24.1348L100.276 22.4626ZM100.276 24.1506V24.9794L99.0989 25.838L98.7167 25.2654L100.276 24.1506ZM32.4162 39.309C32.136 39.578 31.8248 39.8108 31.4894 40.0024C31.3864 40.0628 31.2686 40.1231 31.1507 40.1677V39.309H32.4162ZM31.1513 38.6309V37.9376H37.9903V38.6309H31.1513ZM31.1513 37.2448V36.5667H37.9903V37.2448H31.1513ZM31.1513 35.8733V35.5123C31.7108 35.4818 32.181 35.2256 32.534 34.728C32.9018 34.2463 33.078 33.5834 33.078 32.7394C33.078 31.9106 32.9013 31.2472 32.534 30.7496C32.181 30.2678 31.7108 30.0117 31.1513 29.9812V26.2442C31.2102 26.2741 31.2692 26.2893 31.3132 26.3192C31.8721 26.5607 32.4162 27.0425 32.931 27.7657V26.4546H36.9904V34.4403C36.9463 35.5105 37.5047 35.5105 37.9903 35.5105V35.8715H31.1513V35.8733ZM37.9903 39.309V40.0024H32.931V39.309H37.9903ZM31.1513 40.1677C30.6662 40.3787 30.137 40.4695 29.5484 40.4695L29.3281 40.5C28.1074 40.4848 27.1074 40.0932 26.3128 39.3096H31.1513V40.1677ZM31.1513 26.2448V29.9818H31.137C30.5192 30.0269 30.049 30.2983 29.74 30.7959C29.4309 31.3053 29.249 31.8848 29.2103 32.4833V32.7394C29.2103 33.4474 29.3722 34.0652 29.6811 34.6225C29.99 35.1799 30.4751 35.4818 31.137 35.5123H31.1513V35.8733H24.5039C24.298 35.0451 24.195 34.1554 24.195 33.2065C24.195 32.9955 24.195 32.7546 24.2099 32.5132C24.2242 32.2723 24.2539 32.0308 24.2831 31.7899C24.4397 30.3494 24.9343 28.969 25.7247 27.7669C26.5336 26.5613 27.7252 25.9588 29.3281 25.9588H29.5484C30.1073 25.9588 30.6513 26.049 31.1513 26.2448ZM31.1513 36.5661V37.2442H24.9747C24.8866 37.0332 24.798 36.7923 24.7099 36.5661H31.1513ZM31.1513 37.9376V38.6309H25.739C25.6658 38.5102 25.592 38.4047 25.5188 38.2845C25.4418 38.1743 25.373 38.0583 25.3128 37.9376H31.1513ZM75.4057 37.5161V36.6874L76.7586 36.3258L76.7443 36.341C76.3765 36.7923 75.9205 37.1844 75.4057 37.5161ZM75.4057 35.9788V35.2702L77.627 34.6524C77.5531 34.9272 77.4547 35.1944 77.333 35.4507L75.4057 35.9788ZM75.4057 34.5622V33.8542L77.7443 33.2065C77.7746 33.4474 77.7746 33.6883 77.7443 33.9145L75.4057 34.5622ZM75.4057 33.1309V31.624L77.3026 31.1118L77.5675 32.1668C77.6121 32.2875 77.627 32.4077 77.6556 32.5137L75.4057 33.1309ZM75.4057 30.1476V24.7531C75.6845 25.2205 75.8927 25.7283 76.0235 26.2594L76.9354 29.7256L75.4057 30.1476ZM75.4057 24.7531V30.1476L72.9944 30.8105V22.9749C73.0814 23.0054 73.1855 23.0353 73.2736 23.0652C74.1998 23.3969 74.9063 23.9543 75.4057 24.7531ZM75.4057 31.624V33.1309L73.4795 33.6584C73.4652 33.4925 73.42 33.3114 73.3766 33.1157L73.1409 32.2418L75.4057 31.624ZM75.4057 33.8542V34.5622L72.9944 35.2251V35.1647C73.1855 35.0141 73.3319 34.8335 73.4057 34.6073C73.4349 34.5317 73.4504 34.4567 73.4652 34.3811L75.4057 33.8542ZM75.4057 35.2702V35.9788L72.9944 36.6417V35.9337L75.4057 35.2702ZM75.4057 36.6868V37.5156C74.7298 37.9224 74.0023 38.2316 73.2438 38.4346C73.1557 38.4492 73.0671 38.4797 72.9944 38.4949V37.3503L75.4057 36.6868ZM70.6558 28.6103L72.0974 28.2188L71.9498 27.6913C71.7588 26.9229 71.5231 26.4101 71.2582 26.1539C71.1118 26.0033 70.9052 25.913 70.6558 25.913V22.7786C71.4404 22.6888 72.2345 22.7553 72.9944 22.9743V30.8099L70.6558 31.4429V28.6103ZM72.9944 35.1653V35.2256L72.773 35.2866C72.8468 35.2409 72.9206 35.2104 72.9944 35.1653ZM72.9944 35.9337V36.6417L70.6558 37.2893V36.5661L72.9944 35.9337ZM72.9944 37.3503V38.4949C72.1701 38.6907 71.3909 38.7663 70.6558 38.7059V37.9979L72.9944 37.3503ZM70.6558 35.8581V35.15L71.0671 35.0445C71.1118 35.1049 71.1701 35.1647 71.229 35.2251C71.4647 35.4214 71.7439 35.4964 72.1117 35.4665L70.6558 35.8581ZM70.6558 34.4414V34.2603C70.685 34.3213 70.6993 34.3664 70.7142 34.4262L70.6558 34.4414ZM69.2583 28.9872L70.6558 28.6103V31.4435L69.9642 31.6393L70.5528 33.8841C70.582 34.0194 70.6255 34.1408 70.6558 34.2609V34.442L66.5518 35.5726C66.5063 35.4492 66.4671 35.3234 66.4346 35.1958L64.8906 29.2585C64.7789 28.8713 64.7144 28.4715 64.6983 28.0681V27.7218C64.743 26.7723 65.0816 25.9136 65.7286 25.1452C66.5375 24.1659 67.7143 23.4725 69.2291 23.0511C69.6964 22.9198 70.1737 22.8291 70.6558 22.7797V25.9142C70.4791 25.899 70.2582 25.9289 70.0237 25.9892C69.0672 26.26 68.7732 27.0894 69.1267 28.4755L69.2583 28.9872ZM70.6558 35.15L66.8024 36.205C66.9054 36.4307 67.0226 36.627 67.1554 36.8228L70.6558 35.8581V35.15ZM70.6558 36.5661V37.2893L68.2869 37.937C68.0506 37.783 67.8292 37.6064 67.6256 37.4095L70.6558 36.5661ZM70.6558 37.9985V38.7065C70.1642 38.6636 69.6798 38.5572 69.2142 38.39L70.6558 37.9985ZM58.6837 20.8503L59.9628 20.7295L60.2866 24.4665C60.4473 25.0087 60.7271 25.2953 61.3746 25.3404L61.683 28.8817L60.8003 29.3037L60.5354 30.3288L60.8146 33.5078C60.9914 34.1712 61.4919 34.8037 62.5205 34.6982L62.5508 35.1653L58.6825 35.5123V20.8503H58.6837ZM58.6837 39.6408V38.9626L62.8454 38.5858L62.9049 39.2639L58.6837 39.6408ZM58.6837 38.2693V37.5759L62.7281 37.2143L62.7865 37.8924L58.6837 38.2693ZM58.6837 36.8826V36.205L62.6097 35.8434L62.6692 36.5368L58.6837 36.8826ZM54.757 35.8581L54.7129 35.4062C55.7278 35.3165 56.1242 34.6079 56.1837 33.9145L55.9189 30.7349L55.4921 29.7708L54.5511 29.5147L54.257 25.9734C54.8748 25.8228 55.11 25.4758 55.1689 24.9184L54.86 21.182L58.6842 20.8503V35.5123L54.757 35.8581ZM58.6837 36.205V36.8826L54.8743 37.2295L54.8148 36.5514L58.6837 36.205ZM58.6837 37.5759V38.2693L54.9921 38.601L54.9332 37.9229L58.6837 37.5759ZM58.6837 38.9621V39.6402L55.1094 39.9713L55.0505 39.278L58.6837 38.9621ZM92.8348 30.9764V30.2531L95.6728 29.1982L95.8942 29.8311L92.8348 30.9764ZM92.8348 29.5147L95.4382 28.5499L95.2168 27.9023L92.8348 28.7914V29.5147ZM92.8348 28.0529V27.3297L94.7466 26.6064L94.9812 27.254L92.8348 28.0529ZM92.8348 26.5912V25.0087C93.1288 25.6868 93.8639 25.8228 94.3645 25.5362L94.5252 25.9582L92.8348 26.5912ZM88.7308 31.7753L88.9665 32.4229L85.4214 33.7487V33.0102L88.7308 31.7753ZM92.8348 25.0093V26.5917L89.0694 27.9931L88.9075 27.5711L87.2606 22.9151C86.8338 22.3577 86.4374 22.0864 85.9511 22.2522C85.672 22.3577 85.5101 22.5834 85.4214 22.87V18.078C85.6279 17.867 85.8785 17.6712 86.1273 17.5206C88.2605 16.3607 90.6277 17.9274 91.0253 19.4495L92.2021 22.9755L92.114 23.006L92.8348 25.0093ZM92.8348 27.3297L89.304 28.6408L89.5254 29.2884L92.8348 28.0529V27.3297ZM92.8348 28.7914V29.5147L89.9813 30.5843L89.7611 29.9366L92.8348 28.7914ZM92.8348 30.2531L90.217 31.2325L90.4516 31.8649L92.8348 30.9764V30.2531ZM85.4214 32.2875L88.5105 31.127L88.2748 30.4946L85.4214 31.5496V32.2875ZM85.4214 30.8252V30.0867L87.8189 29.1976L88.0392 29.8452L85.4214 30.8252ZM85.4214 29.364L87.5832 28.5505L87.4368 28.1133C87.2011 28.309 86.8189 28.0383 86.5249 27.3595L85.6279 24.8282C85.5371 24.584 85.468 24.3319 85.4214 24.075V29.364ZM85.4214 33.7487L82.5691 34.8037L82.3334 34.1712L85.4214 33.0108V33.7487ZM85.4214 18.0774V22.8694C85.3184 23.2158 85.3333 23.653 85.4214 24.075V29.364L81.1858 30.9307L81.0394 30.5093C81.9804 30.1629 81.8626 29.4842 81.7453 28.8066L80.6715 25.8081L80.0245 24.9794H79.068L77.877 21.6339L83.4947 19.5544L83.9506 20.8503C83.9798 20.4734 84.4803 19.0275 85.4214 18.0774ZM85.4214 30.0873L81.4215 31.5789L81.6418 32.2266L85.4214 30.8252V30.0873ZM85.4214 31.549L81.8774 32.8748L82.0988 33.523L85.422 32.2875V31.549H85.4214ZM47.5942 39.309V40.0024H40.1081V39.309H47.5942ZM47.5942 37.9376V38.6309H40.1081V37.9376H47.5942ZM47.5942 36.5661V37.2442H40.1081V36.5661H47.5942ZM46.0799 25.9734V27.3748C46.271 26.9528 47.6388 24.9788 49.2417 25.0087C51.1393 25.0392 52.4338 27.1943 52.5952 28.52L52.5219 32.2418H48.8893C48.5953 30.5392 48.3453 29.4092 47.4923 29.3939C46.6394 29.3793 46.3305 30.6447 46.3305 31.6996V34.3817C46.3745 35.1348 47.0215 35.5123 47.5953 35.4214V35.8733H40.1081V35.4214C41.123 35.4214 41.2403 34.7433 41.3438 34.0652V30.8709L41.0206 29.8769L40.1087 29.5299V25.974H46.0799V25.9734ZM22.5332 39.309V40.0622H13.6793V39.309H22.5332ZM22.5332 37.9376V38.6309H13.6793V37.9376H22.5332ZM22.5332 36.5661V37.2442H13.6793V36.5661H22.5332ZM10.2521 39.309V40.0622H1.48633V39.309H10.2521ZM10.2521 37.9376V38.6309H1.48633V37.9376H10.2521ZM10.2521 36.5661V37.2442H1.48633V36.5661H10.2521ZM8.56105 34.3213C8.6789 35.1348 8.86997 34.9842 9.42888 35.4812H10.2526V35.8727H1.48633V35.4812H2.60414C3.61899 35.1952 3.88385 34.5165 3.8541 33.703L3.86955 26.471C3.81063 25.6569 3.32552 25.2355 2.60471 25.1898H1.48633V21.2869H7.86943L11.3848 27.2992L14.1644 21.2869H22.5326V25.1898H21.4148C20.6059 25.3105 20.0029 25.8075 20.0767 26.6967V34.0646C20.1499 34.8482 20.6059 35.4665 21.4148 35.4812H22.5326V35.8727H13.6793V35.4812C14.5763 35.3306 14.7382 35.1043 14.8114 34.5622L14.8257 32.2723L11.7377 34.9695L8.54561 32.0759L8.56105 34.3213Z" fill="#32313A"/>
</svg>
