<svg width="108" height="50" viewBox="0 0 108 50" fill="currentColor" xmlns="http://www.w3.org/2000/svg">
<path fill-rule="currentColor" clip-rule="currentColor" d="M44.9981 22.84L32.9782 23.2715L44.3913 23.9108L44.9981 22.84ZM43.5603 25.386L31.5119 25.8181L42.9674 26.4596L43.5603 25.386ZM42.1225 27.9534L30.0892 28.3793L41.5307 29.0203L42.1225 27.9534ZM40.7143 30.5079L28.6659 30.9405L40.0941 31.5804L40.7143 30.5079ZM55.4428 9.98892L40.1013 10.5392L55.4864 11.4011L55.4428 9.98892ZM55.3456 7.46207L41.5637 7.94931L55.3892 8.74859L55.3456 7.46207ZM55.2472 5.02478L42.968 5.43203L55.3065 6.12261L55.2472 5.02478ZM55.1645 2.52272L44.4013 2.88547L55.207 3.52873L55.1645 2.52272ZM55.0947 0.5H45.7335L55.1087 1.00131L55.0947 0.5ZM39.2626 33.0612L27.2432 33.5H39.0172L39.2626 33.0612Z" fill="#32313A"/>
<path fill-rule="currentColor" clip-rule="currentColor" d="M80.6439 0.5H62.9109L62.4081 1.39081L71.282 1.86197C71.3861 1.86197 71.3861 2.00968 71.2374 2.00968L61.8909 2.32226L60.9894 3.90121L69.8026 4.42219C69.9211 4.43707 69.8919 4.59966 69.7883 4.59966L60.4264 4.90767L59.5552 6.41963L68.3542 6.90855C68.5464 6.92343 68.5464 7.0866 68.3542 7.0866L59.0077 7.41464L58.1204 8.99588L66.8902 9.49911C67.0825 9.51399 67.0682 9.69147 66.8902 9.69147L57.5438 10.0247L56.6411 11.5864L65.4252 12.0748C65.5579 12.0897 65.5739 12.2528 65.396 12.2528L38.4648 13.1557L64.0207 14.5766C64.1826 14.5766 64.1683 14.7838 63.9904 14.7838L37.0157 15.7462L62.5717 17.1666C62.6901 17.1666 62.7193 17.3589 62.5414 17.3589L35.522 18.3356L61.078 19.7566C61.1821 19.7715 61.2845 19.9638 61.0637 19.9787L34.0873 20.9393L59.6427 22.3597C59.7165 22.3746 59.7903 22.567 59.6135 22.567L46.0367 23.0513L46.0813 24.2776L58.1788 24.9503C58.2669 24.9652 58.3115 25.1426 58.1485 25.1426L46.1259 25.5703L46.1848 26.942L56.6857 27.5259C56.7887 27.5408 56.8333 27.7481 56.6554 27.7481L46.2437 28.1139L46.2889 29.619L55.2366 30.1165C55.3396 30.1308 55.3694 30.3232 55.192 30.3232L46.3336 30.6398L46.3925 32.2954L53.787 32.7065C53.8911 32.7214 53.8911 32.8994 53.743 32.8994L46.4222 33.1645L46.452 33.8761H70.3221C76.6514 33.8761 82.3298 29.2583 83.395 25.5875C84.4607 21.9172 84.4607 18.6018 79.3728 16.9445C82.2131 16.2929 87.1517 13.0875 88.1283 8.65581C89.0138 4.62943 87.5356 0.514885 80.6439 0.5ZM68.6373 26.2052H61.3023L65.4429 18.864H70.8856C76.5056 18.864 73.7837 26.2052 68.6373 26.2052ZM78.1314 10.4563C77.8945 11.3443 76.1188 13.5942 73.8723 13.5942H68.4297L71.9193 7.43754H74.7001C78.2486 7.55604 78.3671 9.56895 78.1314 10.4563ZM107.513 44.5137C107.513 41.6689 105.15 39.2862 102.308 39.2862C99.3911 39.2862 97.0102 41.7067 97.0102 44.6803C97.0072 45.3798 97.1427 46.0729 97.4089 46.7197C97.675 47.3664 98.0665 47.9541 98.5607 48.4487C99.055 48.9432 99.6422 49.3349 100.289 49.6012C100.935 49.8675 101.627 50.003 102.326 50C104.485 50 106.534 48.5223 107.143 46.5089H104.448C103.913 47.3584 103.213 47.746 102.251 47.746C101.034 47.746 99.9455 46.9147 99.5942 45.7325H107.383C107.476 45.1606 107.513 44.883 107.513 44.5137ZM99.521 43.8015C99.8717 42.4161 100.979 41.5293 102.345 41.5293C103.711 41.5293 104.782 42.3977 105.114 43.8015H99.521ZM72.5222 39.7791V40.6087C71.7477 39.7774 70.6253 39.3045 69.4251 39.3045C66.7673 39.3045 64.5013 41.5762 64.5013 44.532C64.5013 47.3207 66.5058 49.8219 69.4777 49.8219C70.7883 49.8219 71.7849 49.519 72.7259 48.4479V49.7595H74.9787V39.7791H72.5222ZM69.7712 47.7065C68.9503 47.7065 68.163 47.3802 67.5826 46.7993C67.0021 46.2184 66.676 45.4305 66.676 44.609C66.676 43.7875 67.0021 42.9996 67.5826 42.4187C68.163 41.8379 68.9503 41.5115 69.7712 41.5115C70.5921 41.5115 71.3793 41.8379 71.9598 42.4187C72.5403 42.9996 72.8663 43.7875 72.8663 44.609C72.8663 45.4305 72.5403 46.2184 71.9598 46.7993C71.3793 47.3802 70.5921 47.7065 69.7712 47.7065ZM5.39639 39.2856C4.38154 39.2856 3.60639 39.6366 2.75687 40.5051V39.5261H0.486328V49.7595H2.94164V44.9379C2.94164 43.6269 3.05205 41.539 4.86093 41.539C6.55883 41.539 6.74361 43.4969 6.74361 44.753V49.7589H9.19835V44.2727C9.19835 42.8317 9.08794 42.1487 8.70008 41.3358C8.12801 40.1169 6.78079 39.2856 5.39639 39.2856ZM20.65 44.5137C20.65 41.6689 18.2874 39.2862 15.4448 39.2862C12.5284 39.2862 10.1474 41.7067 10.1474 44.6803C10.1445 45.3797 10.2801 46.0727 10.5462 46.7194C10.8123 47.3661 11.2037 47.9537 11.6979 48.4483C12.1921 48.9428 12.7792 49.3346 13.4255 49.6009C14.0717 49.8672 14.7642 50.0028 15.4631 50C17.6226 50 19.6712 48.5223 20.2804 46.5089H17.586C17.0506 47.3584 16.3492 47.746 15.3893 47.746C14.1713 47.746 13.0821 46.9147 12.7314 45.7325H20.5201C20.6134 45.1606 20.65 44.883 20.65 44.5137ZM12.6582 43.8015C13.0089 42.4161 14.1164 41.5293 15.4825 41.5293C16.8486 41.5293 17.919 42.3977 18.2513 43.8015H12.6582ZM61.0408 49.7509H63.4956V36.1003H61.0408V49.7509ZM81.4551 39.2856C80.4397 39.2856 79.6639 39.6366 78.815 40.5051V39.5261H76.5445V49.7595H79.0003V44.9379C79.0003 43.6269 79.1108 41.539 80.9196 41.539C82.617 41.539 82.8023 43.4969 82.8023 44.753V49.7589H85.257V44.2727C85.257 42.8317 85.1466 42.1487 84.7588 41.3358C84.1867 40.1169 82.8395 39.2856 81.4551 39.2856ZM91.385 41.5396C92.5103 41.5396 93.1562 41.9094 93.766 42.9433H96.5337C95.7774 40.7455 93.8398 39.2856 91.4766 39.2856C88.4864 39.2856 86.0865 41.6684 86.0865 44.6059C86.0865 47.5611 88.5047 49.9994 91.4766 49.9994C92.2346 49.9954 92.9835 49.8341 93.676 49.5257C94.3686 49.2172 94.9896 48.7684 95.4999 48.2075C96.0171 47.635 96.2019 47.3023 96.5337 46.3978H93.766C93.1928 47.284 92.4554 47.7454 91.5326 47.7454C89.8153 47.7454 88.5424 46.4155 88.5424 44.6419C88.5424 42.8512 89.7604 41.5396 91.385 41.5396ZM30.0331 45.7698L28.2945 39.5267H26.3192L24.5618 45.7698L22.4835 39.5267H20.3176L23.7317 49.7595H25.3043L27.298 43.1288L29.2356 49.7595H30.886L34.16 39.5267H32.1303L30.0331 45.7698ZM43.1855 39.2965C41.9858 39.2965 40.8634 39.7694 40.0883 40.6001V36.1008H37.633V49.7509H39.8846V48.4399C40.8263 49.511 41.8228 49.8133 43.1334 49.8133C46.1053 49.8133 48.1098 47.3126 48.1098 44.5234C48.1104 41.5682 45.8439 39.2965 43.1855 39.2965ZM42.8394 47.7065C42.0185 47.7065 41.2312 47.3802 40.6507 46.7993C40.0703 46.2184 39.7442 45.4305 39.7442 44.609C39.7442 43.7875 40.0703 42.9996 40.6507 42.4187C41.2312 41.8379 42.0185 41.5115 42.8394 41.5115C43.6603 41.5115 44.4475 41.8379 45.028 42.4187C45.6084 42.9996 45.9345 43.7875 45.9345 44.609C45.9345 45.4305 45.6084 46.2184 45.028 46.7993C44.4475 47.3802 43.6603 47.7065 42.8394 47.7065ZM56.9454 39.7791V40.6087C56.1703 39.7774 55.0484 39.3045 53.8482 39.3045C51.1904 39.3045 48.9233 41.5762 48.9233 44.532C48.9233 47.3207 50.9284 49.8219 53.8997 49.8219C55.2103 49.8219 56.2069 49.519 57.1485 48.4479V49.7595H59.4002V39.7791H56.9454ZM54.1949 47.7065C53.374 47.7065 52.5868 47.3802 52.0063 46.7993C51.4258 46.2184 51.0997 45.4305 51.0997 44.609C51.0997 43.7875 51.4258 42.9996 52.0063 42.4187C52.5868 41.8379 53.374 41.5115 54.1949 41.5115C55.0158 41.5115 55.8031 41.8379 56.3835 42.4187C56.964 42.9996 57.2901 43.7875 57.2901 44.609C57.2901 45.4305 56.964 46.2184 56.3835 46.7993C55.8031 47.3802 55.0158 47.7065 54.1949 47.7065Z" fill="#32313A"/>
</svg>
