<svg width="110" height="60" viewBox="0 0 110 60" fill="none" xmlns="http://www.w3.org/2000/svg">
<g clip-path="url(#clip0_466_7920)">
<path fill-rule="evenodd" clip-rule="evenodd" d="M0 0H110V60H0V0Z" fill="white"/>
<path d="M0.305556 45.4598V30.977H4.27778C6.47778 30.977 8.25 31.0631 8.25 31.2064C8.25 31.3212 8.40278 32.1815 8.55556 33.1279C8.73889 34.0743 9.22778 37.1143 9.65556 39.8675C10.0833 42.6206 10.5722 45.6606 10.725 46.607C10.8778 47.5534 11 48.4138 11 48.5571C11 48.6719 11.1222 48.7579 11.275 48.7579C11.4278 48.7579 11.6111 48.213 11.6722 47.5534C11.7333 46.8651 12.3444 42.8787 12.9861 38.6343L14.2083 30.9483L18.1806 31.0344L22.1528 31.1204V59.7993H17.2639L17.1111 49.9051C17.0194 44.4561 16.9278 40.1542 16.8667 40.355C16.8361 40.5271 16.1028 44.8576 15.2778 49.9624C14.4222 55.0386 13.6889 59.3977 13.5972 59.5985C13.5056 59.8279 12.7417 59.9426 11.1833 59.9426C8.64722 59.9426 8.8 60.086 8.40278 57.2182C8.31111 56.4438 8.09722 55.1533 7.94444 54.3503C7.79167 53.5759 7.39444 51.1096 7.02778 48.9013C6.14167 43.3663 5.80556 41.875 5.46944 41.875C5.31667 41.875 5.19444 45.5459 5.19444 50.9088V59.9426H0.305556V45.4598ZM23.8333 59.7132C23.8333 59.5698 25.0861 53.1171 26.5833 45.3738C28.1111 37.6305 29.3333 31.2064 29.3333 31.1204C29.3333 31.0344 30.7389 31.0057 32.45 31.0344L35.5972 31.1204L35.9333 32.6977C36.1167 33.5581 36.4222 35.0494 36.6056 35.9958C36.7889 36.9422 37.1556 38.8063 37.4 40.1542C37.675 41.5022 38.2861 44.7142 38.8056 47.324C39.325 49.9337 39.9361 53.1458 40.1806 54.4937C40.4556 55.8416 40.7917 57.4763 40.9444 58.1359C41.4028 60 41.4639 59.9426 38.6528 59.9426C37.2167 59.9426 36.0556 59.914 36.0556 59.8566C36.0556 59.7992 35.9028 58.9962 35.75 58.0498C35.5667 57.1321 35.3528 55.9276 35.2611 55.4114L35.1083 54.465L32.45 54.551L29.8222 54.6371L29.4556 56.874C28.9056 60.1147 29.0889 59.9426 26.2778 59.9426C24.9333 59.9426 23.8333 59.8279 23.8333 59.7132ZM34.5278 50.3066C34.5278 49.8764 32.6333 39.7241 32.5417 39.6093C32.4806 39.552 32.3583 39.8101 32.2667 40.1829C31.9611 41.4735 30.5556 49.6183 30.5556 50.0484C30.5556 50.3926 30.9833 50.4786 32.5417 50.4786C33.6417 50.4786 34.5278 50.3926 34.5278 50.3066ZM43.0833 45.4598V30.977H48.5833C53.4722 30.977 54.2361 31.0344 55.3056 31.5506C58.1778 32.9272 58.4528 34.3324 58.3 46.3202C58.1778 56.4438 58.1472 56.6733 56.1917 58.4227C54.7861 59.6559 53.2889 59.914 47.7583 59.9426H43.0833V45.4598ZM52.4944 55.268C52.9528 54.8091 53.0139 53.8627 53.1056 45.6606C53.1972 36.7415 53.1667 36.512 52.5556 35.7664C51.975 35.0781 51.7 34.9921 49.9278 34.9921H47.9722V55.985L49.9583 55.8703C51.3028 55.7842 52.1278 55.5835 52.4944 55.268ZM61.1111 45.4885V30.977H66.6111C72.7222 30.977 73.5778 31.1491 74.9528 32.6691C76.3583 34.2464 76.45 34.9921 76.3278 45.7466L76.2361 55.7842L75.4111 57.1321C74.9528 57.8491 74.0361 58.7668 73.425 59.1396C72.3556 59.7419 71.8972 59.7992 66.7028 59.914L61.1111 60V45.4885ZM70.4306 55.2106L71.1944 54.5223V45.3164C71.1944 34.5045 71.3472 34.9921 67.9861 34.9921H66V55.9276H67.8333C69.3917 55.9276 69.8194 55.8129 70.4306 55.2106ZM79.4444 45.4598V30.977H92.2778V34.9921H84.3333V41.875H90.4444V45.89H84.3333L84.3944 50.8515L84.4861 55.7842L88.7028 55.8703L92.9194 55.9563L92.8278 57.8778L92.7361 59.7993L86.1056 59.8853L79.4444 59.9426V45.4598ZM94.6306 59.7706C94.5083 59.6559 94.4167 53.1171 94.4167 45.2591V30.977H100.131L102.392 38.1467C103.614 42.1044 104.744 45.3164 104.867 45.3164C104.989 45.3164 105.111 42.1044 105.111 38.1467V30.977H110V59.9713L107.342 59.8853L104.653 59.7993L103.828 57.0748C101.475 49.1307 99.7944 43.8825 99.6417 43.8825C99.55 43.8825 99.4583 47.4673 99.4583 51.8265V59.7993L97.1667 59.8853C95.8833 59.914 94.7528 59.8853 94.6306 59.7706V59.7706ZM4.85833 28.6827C3.05556 28.2525 1.55833 27.2774 0.763889 25.9582C0.0916667 24.8971 0 24.4096 0 22.0005V19.2187H4.88889V21.3696C4.88889 23.3198 4.98056 23.6352 5.68333 24.2948C6.35556 24.9258 6.66111 25.0118 7.73056 24.8684C8.43333 24.7824 9.16667 24.4669 9.38056 24.2088C9.86944 23.5779 9.86944 20.4232 9.38056 19.6202C9.16667 19.2761 7.63889 17.8134 5.95833 16.3508C0.397222 11.5901 0 10.9592 0 6.88679C0 3.7608 0.611111 2.38421 2.38333 1.23706C4.79722 -0.282918 9.53333 -0.311597 12.0389 1.15102C13.9333 2.2695 14.4528 3.33062 14.6056 6.39925L14.7278 8.89431H9.77778V7.46037C9.77778 5.56757 9.13611 4.42041 7.975 4.1623C5.86667 3.73212 4.52222 5.42417 5.01111 7.86187C5.25556 9.0377 5.46944 9.26714 10.1444 13.3109C12.1611 15.0316 13.6583 16.6089 14.025 17.3259C15.2778 19.7062 15.125 24.9831 13.8111 26.6752C12.7722 27.9944 10.9083 28.7401 8.31111 28.8548C7.02778 28.9121 5.46944 28.8261 4.85833 28.6827V28.6827ZM21.0833 16.4942V4.01891H15.5833V0.00387003H31.3194V4.01891H25.9722V28.9695H21.0833V16.4942ZM33 14.4867V0.00387003H45.8333V3.99023L41.9528 4.07627L38.0417 4.1623V11.0452L41.0361 11.1313L44 11.2173V15.2037H37.8889V24.9545H46.4444V28.9695H33V14.4867ZM52.0972 28.6254C51.975 28.2525 51.5167 25.6141 49.1944 12.1924C48.5222 8.26338 47.7583 3.99023 47.5139 2.72836C47.2694 1.46649 47.0556 0.348016 47.0556 0.233301C47.0556 0.0899066 48.2167 0.00387003 49.6222 0.00387003C52.6167 0.00387003 52.3722 -0.254239 52.8611 3.44533C53.0139 4.79324 53.4417 7.83319 53.7778 10.1849C54.1139 12.5652 54.4806 15.2037 54.5722 16.064C54.7556 17.7848 54.9389 18.5017 55.1528 18.3296C55.3056 18.1576 55.9778 13.6837 57.475 2.8144L57.8722 0.00387003H60.5C63.0972 0.00387003 63.1583 0.0325488 63.0361 0.663483C62.6389 2.87175 58.9417 24.3235 58.6667 25.9582C58.1472 29.1989 58.4222 28.9695 55.1222 28.9695C53.075 28.9695 52.1889 28.8548 52.0972 28.6254ZM64.7778 14.4867V0.00387003H77.7639L77.6722 2.01139L77.55 4.01891H69.9722V11.1886H76.1139L76.0222 13.1388L75.9306 15.0603L72.9667 15.1463L69.9722 15.2323V24.9258L74.1889 25.0118L78.375 25.0979L78.4667 27.048L78.5583 28.9695H64.7778V14.4867Z" fill="#32313A"/>
</g>
<defs>
<clipPath id="clip0_466_7920">
<rect width="110" height="60" fill="white"/>
</clipPath>
</defs>
</svg>
