<svg width="110" height="60" viewBox="0 0 110 60" fill="none" xmlns="http://www.w3.org/2000/svg">
<g clip-path="url(#clip0_466_7931)">
<path fill-rule="evenodd" clip-rule="evenodd" d="M0 0H110V60H0V0Z" fill="white"/>
<path d="M59.0762 23.5104C58.5035 23.5027 58.0571 23.3624 57.7392 23.0903C57.4212 22.8182 57.2605 22.4605 57.2564 22.0172H56.4681V32.954H57.2564C57.2605 32.5114 57.4212 32.153 57.7392 31.8809C58.0571 31.6088 58.5035 31.4685 59.0762 31.4608H68.8645V36.6255C68.0205 37.3934 66.5215 38.2386 64.3686 39.1608C62.2172 40.0831 59.355 40.5867 55.7834 40.6694C52.8217 40.6743 50.0975 40.0922 47.6123 38.9238C45.1264 37.7539 43.1274 35.976 41.6153 33.5845C40.1032 31.1943 39.3265 28.1666 39.2846 24.5042C39.321 21.001 40.108 18.0897 41.6448 15.7683C43.181 13.4468 45.2493 11.7103 47.8478 10.5573C50.4463 9.40357 53.3573 8.82777 56.5786 8.82988C59.1291 8.86494 61.4336 9.22263 63.4938 9.90013C65.5539 10.5783 67.1937 11.3638 68.412 12.2559C69.6302 13.148 70.2558 13.9335 70.2853 14.611C70.275 15.0571 70.2393 15.4099 70.172 15.668L70.9603 16.2276L76.4753 6.03923L75.6801 5.66612C75.549 5.86842 75.3706 6.03405 75.1609 6.14794C74.9343 6.27769 74.6898 6.34502 74.4289 6.34993C74.2091 6.3338 73.5973 6.08763 72.5954 5.61212C71.5935 5.13661 70.3272 4.53275 68.7999 3.80055C67.1621 3.21493 65.2847 2.69102 63.1683 2.23024C61.0505 1.76946 58.8159 1.5268 56.4633 1.50014C52.4268 1.48752 48.492 2.29967 44.6595 3.9345C40.827 5.57003 37.6509 8.10399 35.1328 11.5364C32.6146 14.9694 31.3092 19.3732 31.2158 24.7503C31.2769 30.1275 32.4306 34.5313 34.6775 37.9636C36.9237 41.3967 39.8972 43.93 43.5971 45.5655C47.2978 47.2003 51.3583 48.0125 55.7807 47.9999C59.0851 47.9564 62.1959 47.5194 65.1075 46.694C68.0192 45.8671 70.5854 44.9175 72.8021 43.8423C75.0188 42.7671 76.7362 41.8351 77.9551 41.0453V40.1757C77.5905 40.0922 77.3261 39.933 77.1668 39.7002C77.0075 39.4687 76.9285 39.1082 76.9319 38.6194V26.3676C76.9415 25.6944 77.05 25.2083 77.2595 24.9074C77.4682 24.6066 77.7196 24.4312 78.0142 24.3793V23.5097L59.0762 23.5104ZM103.734 15.8328C104.05 15.833 104.361 15.7499 104.636 15.5915C104.908 15.4337 105.125 15.217 105.289 14.9407C105.455 14.6528 105.542 14.3241 105.54 13.9897C105.542 13.6572 105.455 13.3306 105.289 13.0449C105.129 12.7749 104.904 12.5514 104.636 12.3962C104.359 12.2376 104.048 12.1543 103.731 12.1543C103.414 12.1543 103.102 12.2376 102.826 12.3962C102.556 12.5509 102.33 12.7744 102.17 13.0449C102.003 13.3305 101.916 13.6572 101.918 13.9897C101.922 14.3473 102.006 14.665 102.17 14.9407C102.333 15.2177 102.554 15.4344 102.826 15.5915C103.099 15.7493 103.402 15.8293 103.734 15.8328ZM102.276 13.989C102.279 13.6958 102.344 13.4349 102.472 13.2056C102.6 12.9762 102.773 12.796 102.992 12.6634C103.218 12.5299 103.474 12.46 103.734 12.4607C104.006 12.4635 104.252 12.5309 104.47 12.6634C104.687 12.796 104.858 12.9762 104.986 13.2056C105.115 13.4349 105.179 13.6958 105.182 13.989C105.185 14.2657 105.117 14.5386 104.986 14.7808C104.864 15.0054 104.686 15.1929 104.47 15.3243C104.247 15.4578 103.993 15.5276 103.734 15.5263C103.477 15.5297 103.225 15.4622 103.002 15.331C102.78 15.1998 102.597 15.0097 102.472 14.7808C102.341 14.5384 102.274 14.2657 102.276 13.989ZM103.355 14.1348H103.714L104.259 15.055H104.609L104.022 14.1201C104.164 14.1088 104.298 14.0513 104.404 13.956C104.504 13.8648 104.555 13.7245 104.559 13.5366C104.559 13.3283 104.498 13.1754 104.376 13.0779C104.255 12.9811 104.074 12.932 103.829 12.9334H103.043V15.0543H103.355V14.1348ZM103.355 13.8634V13.2056H103.781C103.886 13.2001 103.991 13.2195 104.087 13.2624C104.178 13.3044 104.225 13.3893 104.231 13.5169C104.226 13.6747 104.176 13.7722 104.078 13.8122C103.966 13.854 103.847 13.8712 103.728 13.8627L103.355 13.8634Z" fill="#32313A"/>
<path d="M32.7871 35.6419C32.0131 33.8212 31.4946 31.8841 31.1808 29.8827C31.0913 29.3208 31.0188 28.7562 30.9635 28.1898C30.8555 27.1283 30.7973 26.0622 30.7893 24.9952V24.961C30.81 23.6303 30.9138 22.3023 31.1003 20.9848C31.1975 20.3135 31.2988 19.7496 31.4439 19.0881C31.5758 18.4824 31.707 17.9772 31.8826 17.3847C32.2263 16.1955 32.6802 15.0414 33.2383 13.9375C33.7339 12.9345 34.3214 11.9801 34.9932 11.0869C35.272 10.7126 35.5606 10.3458 35.8589 9.98708V6.84269C35.845 6.33817 35.9137 5.98018 36.0644 5.76595C36.215 5.55102 36.5302 5.44704 37.0098 5.45263V4.81063H28.8331V5.45263C29.3141 5.44704 29.6362 5.55102 29.7994 5.76595C29.9618 5.98018 30.0375 6.33817 30.025 6.84269V26.0189C30.0479 27.8946 29.7931 29.4543 29.2607 30.5966C28.7289 31.7389 27.7855 32.5645 26.4312 33.0781C25.0769 33.5917 23.1776 33.8443 20.7327 33.8352C18.2885 33.8443 16.3885 33.591 15.0341 33.0781C13.6805 32.5659 12.7371 31.7389 12.2047 30.5966C11.6729 29.4543 11.4181 27.8946 11.4404 26.0189V6.84269C11.4286 6.33817 11.5035 5.98018 11.6667 5.76595C11.8298 5.55102 12.1512 5.44704 12.633 5.45263V4.81063H4.45898V5.45263C4.93797 5.44704 5.25452 5.55102 5.40376 5.76595C5.5551 5.98018 5.62313 6.33817 5.60924 6.84269V27.1305C5.64812 31.5135 6.98719 34.6 9.62508 36.3906C12.263 38.1798 15.9657 39.0444 20.7327 38.983C25.5003 39.0444 29.2031 38.1812 31.841 36.3906C32.1783 36.1617 32.4928 35.9133 32.7871 35.6419ZM68.568 22.5521H74.9274C74.9142 22.3009 74.9066 22.0455 74.9038 21.7859C74.9322 19.1537 75.5521 16.966 76.76 15.2215C77.9693 13.4769 79.5964 12.172 81.6408 11.3053C83.6859 10.4386 85.9767 10.0059 88.5104 10.0066C90.5187 10.0345 92.3326 10.3025 93.9535 10.8112C95.5744 11.3206 96.8635 11.911 97.8236 12.5816C98.7829 13.2522 99.2737 13.8426 99.2973 14.352C99.289 14.6869 99.2591 14.9521 99.2064 15.1468L99.8284 15.5669L104.17 7.91106L103.543 7.63123C103.439 7.78401 103.299 7.90826 103.135 7.9927C102.958 8.08949 102.76 8.1417 102.559 8.14483C102.386 8.13227 101.905 7.94735 101.116 7.58936C100.327 7.23278 99.332 6.77919 98.129 6.22861C96.8399 5.78898 95.3634 5.39541 93.6966 5.04929C92.0306 4.70247 90.2716 4.51964 88.4195 4.5001C85.2443 4.49103 82.1476 5.10093 79.1306 6.32979L78.9175 6.41842L72.4436 18.1872L69.9925 16.4761L70.2069 15.6318C70.2215 15.5752 70.2312 15.5271 70.2403 15.4685V15.465C70.2507 15.398 70.2555 15.3415 70.2625 15.2745C70.2736 15.16 70.2771 15.0624 70.2812 14.9465L70.2757 14.9319C70.2729 14.9291 70.2729 14.9263 70.2715 14.9242C70.2476 14.8645 70.2169 14.8078 70.1799 14.7553L70.1778 14.7525C70.147 14.707 70.1144 14.6627 70.0799 14.6199C69.1115 16.7197 68.602 19.1704 68.552 21.9729C68.5562 22.1655 68.5604 22.3595 68.568 22.5521ZM79.2258 31.2965V37.9789C81.8831 38.9607 84.7695 39.4478 87.8829 39.4401C90.484 39.4073 92.9303 39.0793 95.2232 38.4597C97.5146 37.8372 99.5319 37.124 101.278 36.316C103.022 35.5086 104.374 34.8073 105.334 34.2134V33.5588C105.045 33.4953 104.839 33.3767 104.712 33.2016C104.586 33.0278 104.524 32.7564 104.527 32.3893V23.185C104.535 22.6791 104.62 22.3134 104.784 22.0887C104.947 21.8626 105.146 21.7301 105.377 21.6917V21.0385H90.4763C90.0251 21.0322 89.6746 20.9269 89.4226 20.7224C89.302 20.6264 89.205 20.5037 89.1391 20.364C89.0733 20.2242 89.0403 20.071 89.0429 19.9164H88.4216V28.1354H89.0429C89.047 27.8011 89.1734 27.5338 89.4226 27.3287C89.6732 27.1242 90.0237 27.0196 90.4763 27.0126H98.1783V30.8939C97.5139 31.4703 96.3352 32.1053 94.6414 32.7989C92.9483 33.4919 90.6943 33.8701 87.8857 33.9322C85.5553 33.9357 83.4131 33.4981 81.4548 32.6203C80.663 32.2678 79.9149 31.8236 79.2258 31.2965ZM9.31478 58.3707H8.52133V57.8724C8.44983 57.9185 8.35542 57.9855 8.23463 58.0713C7.99033 58.2421 7.71622 58.3652 7.42661 58.4342C7.25376 58.4774 7.05175 58.4997 6.81989 58.4997C6.39297 58.4997 6.03061 58.3602 5.7335 58.0804C5.43639 57.8019 5.28853 57.4453 5.28853 57.0127C5.28853 56.6582 5.36558 56.3714 5.51969 56.1523C5.6738 55.9339 5.89386 55.7601 6.17916 55.6359C6.46794 55.5103 6.81434 55.4244 7.21905 55.3805C7.62376 55.3365 8.05762 55.303 8.52133 55.2786V55.1572C8.52133 54.9785 8.49009 54.8306 8.42623 54.7134C8.36354 54.5964 8.26824 54.5003 8.15203 54.437C8.02556 54.3686 7.88768 54.3242 7.74524 54.3058C7.3466 54.2504 6.94133 54.267 6.54847 54.3547C6.29162 54.4077 6.02575 54.4866 5.75155 54.5905H5.70851V53.7908C5.86401 53.7483 6.08892 53.7022 6.38325 53.6534C6.67057 53.6037 6.96153 53.5785 7.25306 53.578C7.58627 53.578 7.87713 53.6059 8.12495 53.6597C8.37208 53.7148 8.58659 53.8069 8.76707 53.9381C8.94548 54.0665 9.08154 54.2326 9.17456 54.4356C9.26827 54.6401 9.31478 54.892 9.31478 55.1935V58.3707ZM8.52133 57.2192V55.9171C8.27837 55.9318 7.99167 55.9527 7.66263 55.9799C7.33359 56.0085 7.07258 56.049 6.88029 56.1013C6.65121 56.1669 6.46586 56.2653 6.32425 56.4021C6.18264 56.5375 6.11183 56.7238 6.11183 56.9618C6.11183 57.229 6.19444 57.4321 6.35757 57.5661C6.52209 57.7014 6.772 57.7691 7.10867 57.7691C7.38843 57.7691 7.64458 57.7161 7.87644 57.6093C8.10829 57.5005 8.32349 57.37 8.52133 57.2192ZM22.3404 58.3707H21.5428V57.8515C21.2741 58.0608 21.0173 58.2213 20.7709 58.333C20.5143 58.4462 20.2367 58.5031 19.9566 58.4997C19.4582 58.4997 19.0708 58.3497 18.7938 58.049C18.5168 57.7489 18.378 57.3079 18.378 56.7266V53.6897H19.1756V56.3539C19.1756 56.5898 19.1874 56.7929 19.2096 56.9631C19.2325 57.1306 19.2811 57.2751 19.354 57.3951C19.4304 57.5193 19.529 57.6079 19.6511 57.6638C19.7719 57.7196 19.9496 57.7482 20.1815 57.7482C20.3877 57.7482 20.6133 57.6952 20.8576 57.5884C21.1034 57.483 21.3311 57.3462 21.5428 57.1823V53.689H22.3404V58.3707ZM34.8572 57.0239C34.8572 57.4495 34.6781 57.7998 34.3213 58.0748C33.9638 58.3483 33.4751 58.4851 32.8558 58.4851C32.5053 58.4851 32.1832 58.4432 31.8902 58.3609C31.6372 58.2939 31.3909 58.2035 31.1544 58.0908V57.2067H31.1975C31.4487 57.3937 31.7285 57.5416 32.0374 57.6526C32.3456 57.7629 32.6413 57.818 32.9239 57.818C33.2744 57.818 33.5486 57.7622 33.7465 57.6505C33.9443 57.5395 34.0436 57.363 34.0436 57.1229C34.0436 56.9373 33.9894 56.7992 33.8825 56.7029C33.7749 56.608 33.5688 56.527 33.2633 56.46C33.116 56.4281 32.9681 56.3988 32.8197 56.3721C32.6525 56.3411 32.4863 56.3048 32.3213 56.2632C31.9062 56.1551 31.6112 55.9946 31.4369 55.7838C31.2634 55.5724 31.1759 55.3135 31.1759 55.0064C31.1759 54.8139 31.2169 54.6324 31.2967 54.4621C31.3772 54.2933 31.4994 54.1397 31.6639 54.0072C31.8222 53.8753 32.0235 53.7713 32.2686 53.6945C32.5348 53.615 32.8114 53.5762 33.0891 53.5794C33.3723 53.5794 33.6583 53.6143 33.9485 53.6813C34.1984 53.736 34.4411 53.8196 34.6718 53.9304V54.772H34.6295C34.4015 54.6111 34.1513 54.4848 33.8867 54.3972C33.6116 54.298 33.3217 54.2461 33.0294 54.2437C32.7385 54.2437 32.4928 54.2989 32.2915 54.4084C32.0909 54.5187 31.9902 54.6841 31.9902 54.9018C31.9902 55.093 32.0513 55.2388 32.1728 55.3365C32.2915 55.4356 32.4838 55.5138 32.7496 55.5752C32.8968 55.6094 33.0613 55.6436 33.2439 55.6771C33.4265 55.7099 33.5785 55.7406 33.7 55.7692C34.0707 55.8529 34.356 55.996 34.5566 56.2004C34.7572 56.4077 34.8572 56.6812 34.8572 57.0239ZM46.9915 58.3295C46.8299 58.3717 46.6661 58.4041 46.5007 58.4265C46.3441 58.4499 46.1862 58.4627 46.0279 58.4649C45.5441 58.4649 45.1769 58.3351 44.9249 58.079C44.6736 57.8222 44.5472 57.4104 44.5472 56.8431V54.3561H44.0086V53.6945H44.5472V52.3498H45.3449V53.6945H46.9915V54.3561H45.3449V56.4879C45.3449 56.735 45.3504 56.9262 45.3615 57.0643C45.3733 57.2018 45.4129 57.3316 45.4802 57.4516C45.542 57.5633 45.6281 57.6449 45.7371 57.6973C45.8461 57.7503 46.012 57.7747 46.2355 57.7747C46.3653 57.7747 46.5007 57.7559 46.6423 57.7182C46.7839 57.6798 46.8852 57.6484 46.947 57.6233H46.9901L46.9915 58.3295ZM59.443 54.5515H59.4006C59.2861 54.5254 59.1702 54.5054 59.0535 54.4915C58.9221 54.4775 58.79 54.4713 58.6579 54.4726C58.4114 54.4726 58.174 54.5256 57.9456 54.6331C57.7166 54.7406 57.4965 54.8801 57.2834 55.0504V58.372H56.4865V53.6938H57.2834V54.384C57.5999 54.1342 57.8783 53.9555 58.1213 53.8502C58.3642 53.7462 58.61 53.6925 58.8613 53.6925C58.9994 53.6925 59.1001 53.6966 59.1632 53.7036C59.2264 53.7106 59.3187 53.7232 59.443 53.7434V54.5515ZM71.8112 58.3707H71.0171V57.8724C70.9456 57.9185 70.8525 57.9855 70.7311 58.0713C70.4869 58.2425 70.2128 58.3656 69.923 58.4342C69.7241 58.4802 69.5204 58.5023 69.3163 58.4997C68.8894 58.4997 68.5256 58.3602 68.2306 58.0804C67.9335 57.8019 67.785 57.4453 67.785 57.0127C67.785 56.6582 67.862 56.3714 68.0161 56.1523C68.1709 55.9339 68.3903 55.7601 68.6756 55.6359C68.9644 55.5103 69.3108 55.4244 69.7148 55.3805C70.1188 55.3365 70.5534 55.303 71.0171 55.2786V55.1572C71.0171 54.9785 70.9858 54.8306 70.9213 54.7134C70.858 54.5968 70.7628 54.501 70.6471 54.437C70.5204 54.3686 70.3823 54.3241 70.2396 54.3058C69.8409 54.2504 69.4357 54.267 69.0428 54.3547C68.7712 54.412 68.5044 54.4909 68.2452 54.5905H68.2022V53.7908C68.359 53.7483 68.584 53.7022 68.8783 53.6534C69.1719 53.6031 69.4614 53.578 69.7481 53.578C70.0806 53.578 70.3715 53.6059 70.62 53.6597C70.8664 53.7148 71.0816 53.8069 71.2628 53.9381C71.4405 54.0665 71.5759 54.2326 71.6696 54.4356C71.7633 54.6401 71.8091 54.892 71.8091 55.1935V58.37H71.8112V58.3707ZM71.0171 57.2192V55.9171C70.7306 55.9348 70.4444 55.9558 70.1584 55.9799C69.8944 55.998 69.6324 56.0386 69.3753 56.1013C69.1469 56.1669 68.9609 56.2653 68.82 56.4021C68.6784 56.5375 68.6069 56.7238 68.6069 56.9618C68.6069 57.229 68.6895 57.4321 68.8526 57.5661C69.0157 57.7014 69.267 57.7691 69.6037 57.7691C69.8835 57.7691 70.1389 57.7161 70.3701 57.6093C70.6026 57.5005 70.8192 57.37 71.0171 57.2192ZM81.8907 58.3707H81.0931V51.8537H81.8907V58.3707ZM92.327 52.9095H91.4281V52.0923H92.327V52.9095ZM92.277 58.3707H91.4801V53.6925H92.277V58.3707ZM105.54 58.3707H104.747V57.8724C104.676 57.9185 104.58 57.9855 104.46 58.0713C104.216 58.2421 103.942 58.3652 103.653 58.4342C103.454 58.4806 103.25 58.5027 103.047 58.4997C102.62 58.4997 102.256 58.3602 101.961 58.0804C101.662 57.8019 101.515 57.4453 101.515 57.0127C101.515 56.6582 101.591 56.3714 101.745 56.1523C101.9 55.9339 102.121 55.7601 102.405 55.6359C102.693 55.5103 103.039 55.4244 103.444 55.3805C103.877 55.3345 104.312 55.3005 104.747 55.2786V55.1572C104.747 54.9785 104.715 54.8306 104.65 54.7134C104.587 54.5965 104.492 54.5005 104.376 54.437C104.25 54.3684 104.112 54.324 103.969 54.3058C103.571 54.2502 103.165 54.2668 102.772 54.3547C102.501 54.4117 102.235 54.4906 101.976 54.5905H101.933V53.7908C102.089 53.7483 102.314 53.7022 102.608 53.6534C102.895 53.6038 103.186 53.5786 103.477 53.578C103.811 53.578 104.101 53.6059 104.35 53.6597C104.597 53.7148 104.812 53.8069 104.992 53.9381C105.171 54.0665 105.307 54.2326 105.401 54.4356C105.494 54.6401 105.54 54.892 105.54 55.1935V58.3707ZM104.747 57.2192V55.9171C104.504 55.9318 104.218 55.9527 103.889 55.9799C103.625 55.9978 103.363 56.0385 103.106 56.1013C102.877 56.1669 102.691 56.2653 102.55 56.4021C102.408 56.5375 102.337 56.7238 102.337 56.9618C102.337 57.229 102.42 57.4321 102.584 57.5661C102.747 57.7014 102.997 57.7691 103.335 57.7691C103.599 57.7725 103.861 57.718 104.102 57.6093C104.334 57.4991 104.55 57.37 104.747 57.2192Z" fill="#32313A"/>
</g>
<defs>
<clipPath id="clip0_466_7931">
<rect width="110" height="60" fill="white"/>
</clipPath>
</defs>
</svg>
