<svg width="24" height="24"  viewBox="0 0 24 24"  xmlns="http://www.w3.org/2000/svg" >

<path d="M23.4996 6.50708C23.3637 6.02231 23.099 5.58342 22.7336 5.23708C22.3579 4.88008 21.8974 4.62471 21.3956 4.49508C19.5176 4.00008 11.9936 4.00008 11.9936 4.00008C8.85697 3.96439 5.72107 4.12135 2.60364 4.47008C2.10183 4.60929 1.6422 4.87036 1.26564 5.23008C0.895641 5.58608 0.627641 6.02508 0.487641 6.50608C0.151334 8.31782 -0.0120674 10.1574 -0.000359379 12.0001C-0.0123594 13.8411 0.150641 15.6801 0.487641 17.4941C0.624641 17.9731 0.891641 18.4101 1.26264 18.7631C1.63364 19.1161 2.09564 19.3711 2.60364 19.5061C4.50664 20.0001 11.9936 20.0001 11.9936 20.0001C15.1343 20.0358 18.2742 19.8789 21.3956 19.5301C21.8974 19.4004 22.3579 19.1451 22.7336 18.7881C23.1036 18.4351 23.3666 17.9961 23.4986 17.5181C23.8437 15.707 24.0115 13.8667 23.9996 12.0231C24.0256 10.1717 23.858 8.32264 23.4996 6.50608V6.50708ZM9.60164 15.4241V8.57708L15.8616 12.0011L9.60164 15.4241Z" fill="#6E6D74"/>
<defs>
<clipPath id="clip0_706_943">
<rect width="24" height="24" fill="currentColor"/>
</clipPath>
</defs>
</svg>
